<svg width="34" height="34" viewBox="0 0 34 34" fill="none" xmlns="http://www.w3.org/2000/svg">
<path d="M5.66669 11.3334C5.66669 7.32643 5.66669 5.32297 6.91148 4.07817C8.15628 2.83337 10.1597 2.83337 14.1667 2.83337H19.8334C23.8403 2.83337 25.8437 2.83337 27.0885 4.07817C28.3334 5.32297 28.3334 7.32643 28.3334 11.3334V22.6667C28.3334 26.6736 28.3334 28.6771 27.0885 29.9219C25.8437 31.1667 23.8403 31.1667 19.8334 31.1667H14.1667C10.1597 31.1667 8.15628 31.1667 6.91148 29.9219C5.66669 28.6771 5.66669 26.6736 5.66669 22.6667V11.3334Z" stroke="white" stroke-width="2"/>
<path d="M28.1886 22.6667H11.1885C9.87108 22.6667 9.21235 22.6667 8.67189 22.8115C7.20524 23.2045 6.05967 24.3502 5.66669 25.8167" stroke="white" stroke-width="2"/>
<path d="M11.3334 9.91675H22.6667" stroke="white" stroke-width="2" stroke-linecap="round"/>
<path d="M11.3334 14.875H18.4167" stroke="white" stroke-width="2" stroke-linecap="round"/>
<path d="M18.4167 22.6667V27.6689C18.4167 28.0593 18.4167 28.2545 18.2822 28.3334C18.1479 28.4123 17.9642 28.3251 17.5966 28.1504L15.8368 27.3145C15.7124 27.2555 15.6502 27.2259 15.5833 27.2259C15.5165 27.2259 15.4543 27.2555 15.3299 27.3145L13.5701 28.1504C13.2025 28.3251 13.0188 28.4123 12.8844 28.3334C12.75 28.2545 12.75 28.0593 12.75 27.6689V23.3042" stroke="white" stroke-width="2" stroke-linecap="round"/>
</svg>
