<svg width="34" height="34" viewBox="0 0 34 34" fill="none" xmlns="http://www.w3.org/2000/svg">
<path d="M31.6509 2.35097C28.5163 -0.783625 23.4155 -0.782388 20.2803 2.35097L14.595 8.0363C14.1119 8.51935 14.1119 9.30238 14.595 9.78544C15.078 10.2685 15.861 10.2685 16.3441 9.78544L22.0294 4.10011C23.0753 3.05484 24.4732 2.47839 25.965 2.47839C27.4575 2.47839 28.8553 3.05484 29.9012 4.10073C30.9471 5.14663 31.5235 6.54446 31.5235 8.03692C31.5235 9.52876 30.9471 10.9266 29.9012 11.9725L22.4673 19.4082C20.2964 21.5779 16.7653 21.5779 14.5943 19.4082C14.1113 18.9251 13.3283 18.9251 12.8452 19.4082C12.3621 19.8912 12.3621 20.6749 12.8452 21.1573C14.4125 22.7246 16.4715 23.5083 18.5305 23.5083C20.5895 23.5083 22.6486 22.7246 24.2159 21.1573L31.6509 13.7222C33.1644 12.2094 33.9982 10.1899 33.9982 8.03692C33.9982 5.88327 33.1644 3.86446 31.6509 2.35097Z" fill="white"/>
<path d="M16.7813 25.0929L11.9706 29.9036C10.9247 30.9495 9.52685 31.526 8.03439 31.526C6.54255 31.526 5.14411 30.9495 4.09821 29.9036C1.92786 27.7333 1.92786 24.2016 4.09821 22.0312L11.096 15.0335C12.1419 13.9882 13.5397 13.4117 15.0322 13.4117C16.524 13.4117 17.9219 13.9882 18.9678 15.0335C19.4508 15.5165 20.2338 15.5165 20.7169 15.0335C21.2 14.5504 21.2 13.7674 20.7169 13.2843C17.5829 10.1503 12.4821 10.1497 9.34625 13.2843L2.34845 20.2827C0.83558 21.7956 0.00183105 23.815 0.00183105 25.9681C0.00183105 28.1205 0.83558 30.1399 2.34907 31.6528C3.86194 33.1662 5.88137 34 8.03378 34C10.1868 34 12.2062 33.1662 13.7191 31.6528L18.5299 26.842C19.0129 26.3589 19.0129 25.5759 18.5299 25.0929C18.0468 24.6098 17.2644 24.6098 16.7813 25.0929Z" fill="white"/>
</svg>
